<?xml version="1.0" standalone="no"?>
<!DOCTYPE svg PUBLIC "-//W3C//DTD SVG 20010904//EN"
 "http://www.w3.org/TR/2001/REC-SVG-20010904/DTD/svg10.dtd">
<svg version="1.0" xmlns="http://www.w3.org/2000/svg"
 width="936.000000pt" height="936.000000pt" viewBox="0 0 936.000000 936.000000"
 preserveAspectRatio="xMidYMid meet">
<metadata>
Created by potrace 1.11, written by Peter Selinger 2001-2013
</metadata>
<g transform="translate(0.000000,936.000000) scale(0.100000,-0.100000)"
fill="#000000" stroke="none">
<path d="M4514 6675 c-4 -8 -10 -15 -16 -15 -5 0 -6 5 -3 10 3 6 -1 10 -9 10
-9 0 -16 -3 -16 -8 0 -4 -122 -7 -271 -7 -149 0 -273 -3 -275 -7 -3 -5 -10 -5
-16 -2 -7 5 -8 2 -3 -6 6 -10 4 -12 -10 -6 -15 5 -16 4 -6 -8 10 -12 7 -13
-23 -6 -19 4 -37 5 -40 2 -4 -3 -6 -1 -6 4 0 6 -33 11 -72 11 -88 2 -118 5
-118 14 0 9 -154 4 -170 -6 -8 -5 -46 -9 -85 -10 -49 0 -69 -4 -68 -13 4 -15
-43 -27 -60 -15 -11 7 -28 9 -65 4 -7 0 -10 -5 -7 -11 3 -5 0 -7 -8 -4 -8 3
-18 0 -22 -6 -5 -8 -11 -7 -23 2 -13 11 -14 11 -7 -1 6 -11 4 -13 -8 -8 -10 3
-17 3 -17 -2 0 -5 -13 -7 -29 -6 -30 2 -33 -5 -16 -48 6 -13 3 -16 -9 -11 -9
3 -13 11 -9 17 4 6 0 8 -9 5 -8 -4 -21 -2 -28 2 -9 6 -19 2 -28 -8 -7 -9 -11
-12 -8 -5 4 7 -1 11 -13 10 -11 0 -17 -5 -15 -9 3 -4 0 -9 -5 -9 -6 -1 -15 -2
-20 -3 -5 0 -13 -5 -18 -10 -5 -5 -3 -6 5 -2 6 4 12 2 12 -3 0 -6 -7 -11 -16
-11 -9 0 -24 -10 -35 -22 -10 -13 -18 -18 -19 -12 0 6 -10 9 -24 7 -13 -3 -27
0 -30 6 -4 7 -19 3 -42 -10 -20 -11 -32 -14 -28 -8 4 8 3 9 -4 5 -7 -4 -12
-16 -12 -26 0 -22 -26 -17 -48 9 -12 14 -13 14 -8 -1 3 -12 1 -15 -9 -11 -8 3
-12 9 -9 14 3 5 -2 9 -10 9 -9 0 -16 5 -16 10 0 6 -3 9 -7 8 -11 -3 -73 20
-73 27 0 3 5 3 12 -1 7 -5 8 -3 3 6 -6 10 -11 9 -22 -5 -12 -18 -13 -18 -13 3
0 12 -3 21 -7 21 -5 -1 -19 -1 -33 0 -20 1 -22 3 -10 11 12 8 10 10 -10 10
-45 0 -60 3 -60 14 0 6 -5 4 -10 -4 -6 -10 -10 -11 -10 -2 0 8 -17 12 -50 12
-27 0 -50 5 -50 10 0 6 -5 10 -11 10 -5 0 -7 -6 -3 -12 6 -10 4 -10 -8 0 -12
9 -44 12 -115 9 -107 -4 -137 -10 -161 -29 -13 -11 -14 -11 -7 2 8 13 7 13 -8
1 -9 -7 -26 -11 -37 -8 -11 3 -20 1 -20 -3 0 -5 -9 -7 -20 -5 -11 2 -20 0 -20
-6 0 -5 -7 -9 -15 -9 -8 0 -15 -4 -15 -9 0 -11 -48 -27 -98 -33 -7 -1 -11 -7
-8 -14 3 -8 -2 -10 -16 -6 -14 3 -19 1 -14 -6 4 -7 1 -12 -9 -12 -9 0 -15 -6
-13 -13 3 -11 -35 -57 -47 -57 -3 0 -8 0 -12 0 -5 0 -1 -5 7 -10 13 -8 12 -10
-3 -10 -10 0 -15 -4 -12 -10 3 -5 1 -10 -4 -10 -6 0 -11 5 -11 12 0 6 -6 4
-13 -7 -9 -11 -19 -15 -27 -10 -10 6 -12 4 -7 -8 4 -11 2 -14 -9 -10 -10 4
-12 0 -8 -11 3 -9 1 -16 -5 -16 -6 0 -11 -7 -11 -15 0 -9 -10 -20 -22 -25 -14
-5 -17 -9 -8 -10 12 0 11 -3 -2 -11 -10 -5 -18 -19 -18 -30 0 -13 -4 -18 -12
-13 -8 5 -9 2 -5 -10 4 -9 3 -15 -2 -12 -5 3 -15 -2 -22 -11 -10 -12 -10 -14
-1 -9 6 4 12 2 12 -3 0 -6 -7 -11 -16 -11 -8 0 -13 -4 -9 -9 3 -5 1 -12 -4
-16 -6 -3 -7 -13 -4 -22 4 -9 2 -14 -3 -10 -6 3 -10 -19 -9 -59 1 -35 -3 -64
-8 -64 -5 0 -7 -7 -4 -15 4 -8 2 -17 -3 -20 -4 -3 -7 -13 -6 -23 2 -9 -1 -20
-6 -23 -15 -10 -16 -218 -2 -223 7 -3 10 -13 7 -24 -2 -10 3 -26 12 -36 12
-12 13 -16 3 -16 -7 0 -2 -11 13 -23 14 -13 25 -31 23 -40 -1 -9 2 -17 8 -17
6 0 3 -12 -7 -26 -11 -18 -13 -24 -4 -19 8 5 5 -2 -6 -15 -13 -15 -15 -21 -5
-16 13 7 13 6 0 -6 -19 -16 -24 -56 -9 -74 6 -8 8 -14 3 -14 -5 0 -2 -5 6 -10
13 -9 13 -11 0 -20 -12 -9 -12 -10 5 -8 14 2 25 -7 36 -29 9 -18 19 -30 22
-26 4 3 2 -8 -3 -26 -6 -21 -5 -31 2 -31 6 0 8 -10 5 -21 -4 -17 -3 -19 6 -10
15 15 24 14 24 -4 0 -8 -4 -12 -9 -9 -10 6 -9 10 -11 -97 -1 -59 -7 -92 -17
-104 -8 -11 -10 -16 -3 -11 9 5 11 2 7 -8 -3 -9 -10 -16 -15 -16 -5 0 -7 -13
-5 -30 2 -16 0 -30 -4 -30 -4 0 -11 -7 -14 -16 -3 -9 -2 -12 5 -8 6 3 3 -8 -6
-26 -12 -23 -13 -30 -3 -24 8 5 6 -2 -5 -19 -9 -14 -17 -33 -17 -42 0 -9 -4
-14 -9 -11 -4 3 -8 -2 -8 -12 0 -27 -15 -62 -23 -57 -5 3 -12 0 -16 -6 -4 -8
-3 -9 4 -5 7 4 12 1 12 -9 0 -9 -4 -13 -10 -10 -5 3 -7 0 -4 -8 3 -8 1 -18 -5
-21 -6 -4 -8 -13 -4 -22 3 -9 0 -14 -7 -12 -8 2 -14 -8 -15 -25 -1 -16 -8 -32
-15 -37 -10 -6 -9 -9 1 -13 10 -4 9 -6 -3 -6 -11 -1 -16 -8 -13 -21 3 -13 -2
-20 -12 -20 -12 0 -13 -3 -4 -14 9 -11 9 -16 0 -22 -8 -5 -9 -3 -4 6 6 9 4 11
-4 6 -7 -5 -10 -14 -7 -22 3 -8 1 -14 -3 -14 -5 0 -7 -10 -3 -22 3 -14 2 -19
-6 -14 -11 7 -17 -6 -13 -28 1 -5 -5 -6 -14 -2 -9 3 -13 2 -10 -4 3 -5 0 -20
-7 -32 -7 -13 -11 -29 -10 -35 2 -7 -2 -13 -8 -13 -6 0 -9 -4 -6 -9 3 -5 -2
-12 -11 -15 -15 -6 -15 -8 -3 -17 11 -8 12 -12 3 -16 -7 -2 -13 -13 -13 -23 0
-10 -5 -22 -12 -26 -7 -5 -8 -3 -3 6 5 9 4 11 -4 6 -9 -6 -9 -11 1 -24 10 -12
10 -14 1 -8 -9 5 -13 -1 -13 -19 0 -18 -4 -24 -12 -19 -10 6 -10 5 -1 -7 9
-11 8 -18 -1 -31 -7 -10 -16 -15 -20 -11 -4 4 -4 -1 0 -12 6 -15 4 -17 -11
-12 -15 6 -16 5 -5 -8 10 -12 10 -15 0 -15 -8 0 -10 -3 -7 -7 4 -3 2 -12 -4
-20 -6 -7 -8 -13 -4 -13 5 0 0 -10 -11 -22 -10 -12 -13 -18 -7 -14 9 5 11 2 7
-8 -3 -9 -11 -13 -17 -9 -6 4 -8 0 -4 -10 3 -10 2 -17 -4 -17 -6 0 -8 -4 -5
-9 3 -5 -1 -14 -9 -21 -12 -10 -13 -16 -3 -28 10 -13 10 -14 0 -8 -8 5 -12 1
-12 -11 0 -11 -6 -25 -12 -32 -11 -11 -10 -12 2 -6 13 8 13 6 2 -8 -8 -9 -10
-22 -6 -28 5 -8 3 -9 -6 -4 -10 6 -12 4 -7 -8 3 -9 0 -18 -9 -21 -9 -3 -13
-10 -9 -15 3 -5 1 -12 -4 -16 -5 -3 -8 -14 -6 -25 2 -11 0 -20 -5 -20 -5 0 -7
-7 -4 -15 4 -8 2 -15 -3 -15 -11 0 -10 -70 1 -89 6 -10 5 -12 -3 -7 -8 6 -8 1
0 -17 11 -25 23 -28 48 -13 10 6 12 5 7 -2 -4 -7 -2 -12 3 -12 6 0 11 4 11 9
0 5 9 11 20 14 13 3 18 11 14 20 -3 8 0 18 7 23 8 4 10 3 5 -4 -4 -7 -2 -12 3
-12 6 0 11 5 11 12 0 7 10 21 23 33 13 11 17 16 10 11 -10 -6 -12 -4 -7 8 3 9
11 16 17 16 6 0 7 3 4 7 -4 3 -2 12 3 19 11 12 17 33 27 86 3 15 9 26 13 23 4
-3 8 1 7 8 -1 49 4 69 18 64 11 -5 12 -1 5 19 -7 17 -7 23 0 19 6 -3 10 -1 10
5 0 6 5 8 13 4 9 -6 9 -4 -1 8 -10 13 -10 17 3 22 9 3 15 12 13 20 -2 8 6 22
17 31 11 9 13 13 5 9 -12 -7 -13 -5 -3 8 7 8 9 19 5 23 -4 5 -2 5 4 2 7 -4 14
2 17 14 4 14 10 18 19 13 9 -5 8 -2 -2 11 -14 17 -13 18 3 12 9 -3 17 -2 17 3
0 6 -5 10 -11 10 -5 0 -8 4 -4 10 3 5 12 7 21 3 16 -6 16 17 -1 29 -6 5 -3 8
7 8 9 0 20 5 24 12 4 7 3 8 -4 4 -7 -4 -12 -3 -12 2 0 6 7 13 16 16 9 3 14 13
11 21 -4 9 -1 12 9 8 10 -3 12 0 9 10 -4 8 1 17 11 21 13 5 14 9 4 21 -10 12
-8 14 9 10 13 -2 18 1 15 10 -3 7 -1 16 5 19 6 4 7 14 4 24 -5 14 -3 14 9 -2
14 -18 15 -17 13 12 -1 24 2 30 16 27 11 -2 16 1 13 9 -3 7 2 19 11 26 18 15
20 34 3 25 -7 -4 -1 3 15 15 15 12 27 28 27 36 0 9 5 12 11 8 8 -4 8 0 0 15
-7 12 -8 21 -2 21 5 0 12 -6 14 -12 4 -10 6 -10 6 0 1 6 0 14 -1 17 -2 2 6 11
17 20 11 9 14 13 6 9 -9 -5 -12 -3 -7 4 4 7 15 12 24 12 15 0 15 2 2 10 -13 8
-13 10 2 10 11 0 16 6 13 19 -3 14 1 18 11 14 10 -4 12 0 7 13 -5 13 -3 15 7
9 10 -6 12 -4 7 8 -3 9 -3 16 1 16 19 -3 25 2 12 11 -13 8 -13 10 2 10 12 0
16 6 13 21 -3 12 -2 19 1 16 8 -8 55 43 48 54 -3 5 -2 9 3 8 22 -4 32 2 27 16
-4 9 0 15 10 15 9 0 16 7 16 15 0 18 21 20 39 3 10 -11 11 -9 5 7 -7 17 -6 18
8 5 12 -12 13 -18 4 -29 -8 -12 -8 -13 2 -7 8 5 16 -2 23 -23 6 -17 16 -31 22
-31 7 0 5 -5 -3 -10 -13 -8 -12 -10 4 -10 12 0 16 -5 13 -14 -3 -8 1 -20 9
-27 8 -6 13 -17 11 -23 -4 -13 39 -49 50 -43 5 3 17 -7 27 -22 l20 -26 -25 20
-24 20 19 -23 c11 -13 26 -20 34 -17 12 4 12 3 3 -9 -10 -12 -8 -16 8 -21 12
-3 21 -11 21 -16 0 -6 -4 -8 -8 -5 -5 3 -9 -1 -9 -8 0 -8 7 -12 15 -8 10 3 13
1 8 -6 -5 -8 1 -12 16 -13 13 0 18 -3 11 -5 -16 -7 -5 -34 14 -34 8 0 11 -5 7
-12 -5 -8 -2 -9 10 -5 14 5 17 3 12 -8 -5 -13 5 -20 27 -16 4 0 7 -4 7 -9 0
-6 7 -10 15 -10 8 0 15 -4 15 -10 0 -5 7 -10 16 -10 9 0 12 -5 8 -12 -6 -10
-4 -10 7 0 7 6 18 12 24 12 5 0 4 -4 -3 -8 -10 -7 -8 -13 6 -30 15 -17 21 -19
32 -9 10 9 11 9 6 0 -4 -7 -2 -13 4 -13 6 0 9 -4 6 -9 -3 -5 1 -12 10 -15 10
-4 13 -2 8 6 -4 7 -3 8 4 4 7 -4 12 -15 12 -26 0 -10 7 -21 16 -24 15 -6 15
-4 3 11 -13 16 -12 17 4 4 9 -7 17 -20 17 -28 0 -8 5 -11 11 -7 8 4 9 -1 5
-17 -3 -13 -3 -18 0 -11 9 19 32 14 39 -9 6 -17 9 -19 16 -8 7 11 9 11 9 -3 0
-20 39 -50 54 -41 6 4 5 0 -2 -9 -11 -13 -8 -16 19 -22 16 -3 28 -10 25 -15
-3 -5 1 -11 9 -15 8 -3 15 -1 15 5 0 6 6 6 19 0 10 -6 21 -7 25 -4 4 4 9 -3
13 -15 3 -12 10 -22 17 -21 19 3 46 -12 46 -26 0 -7 12 -20 26 -30 18 -12 24
-13 19 -4 -3 8 3 3 14 -10 12 -13 21 -18 21 -12 0 7 5 9 10 6 6 -4 8 -11 5
-16 -3 -5 2 -6 11 -2 13 5 15 3 9 -7 -6 -10 -1 -12 23 -8 17 2 29 1 27 -3 -3
-4 2 -10 11 -13 8 -3 12 -2 9 4 -3 6 -1 10 4 10 6 0 11 -5 11 -11 0 -7 10 -9
24 -7 18 4 23 1 18 -10 -3 -10 -1 -13 6 -8 7 4 12 2 12 -3 0 -6 8 -11 18 -11
10 0 24 -6 31 -12 11 -11 12 -10 6 0 -6 11 -3 12 12 3 11 -6 24 -7 29 -3 5 4
2 -1 -5 -11 -12 -15 -12 -17 3 -11 10 4 25 -1 36 -11 16 -14 20 -15 20 -4 0
12 2 12 9 0 5 -8 14 -10 21 -6 9 5 11 4 6 -3 -7 -12 -3 -14 32 -15 9 -1 20 -6
24 -12 5 -6 8 -4 8 4 0 11 4 10 16 -5 8 -10 13 -13 9 -7 -4 9 -1 11 9 7 9 -3
16 -11 16 -16 0 -6 7 -7 16 -4 8 3 12 2 9 -4 -4 -6 6 -8 24 -6 17 2 28 -1 25
-5 -3 -5 -1 -9 5 -9 5 0 12 6 14 13 4 7 6 6 6 -4 1 -12 9 -16 31 -14 17 1 30
0 30 -4 0 -4 10 -8 23 -9 22 -2 58 -9 67 -12 3 -1 10 -3 15 -5 6 -1 15 -3 20
-5 6 -1 20 -1 33 0 13 1 30 -4 39 -12 14 -11 16 -11 8 2 -6 12 -5 13 6 3 7 -7
29 -13 49 -13 20 0 41 -5 48 -12 9 -9 12 -9 12 1 0 10 3 11 14 2 9 -7 58 -11
141 -10 76 1 130 -2 134 -8 4 -6 87 -10 217 -10 116 -1 221 -4 233 -8 11 -3
21 -14 22 -23 0 -11 3 -12 6 -4 2 6 9 12 14 12 6 0 7 -5 3 -11 -5 -8 -1 -8 14
0 15 8 23 8 28 0 5 -9 11 -6 21 6 7 11 13 13 13 7 0 -9 5 -10 18 -3 13 7 27 6
46 -4 14 -8 24 -10 21 -5 -4 6 -1 10 4 10 6 0 11 -4 11 -10 0 -5 7 -10 15 -10
28 0 53 -22 47 -43 -3 -11 -1 -18 4 -14 15 8 8 -83 -6 -96 -10 -9 -11 -9 -5 3
5 8 4 12 0 7 -14 -12 -18 -45 -18 -149 -1 -61 -5 -98 -12 -98 -5 0 -3 -5 5
-10 12 -7 12 -12 2 -22 -6 -6 -12 -23 -12 -36 0 -16 -4 -22 -14 -19 -10 4 -12
0 -9 -14 3 -10 0 -26 -7 -34 -10 -12 -10 -15 1 -15 11 0 11 -2 -1 -9 -8 -6
-17 -8 -21 -5 -5 2 -6 -5 -4 -17 3 -14 0 -19 -9 -16 -7 3 -13 -1 -13 -9 0 -7
5 -11 11 -8 6 3 4 0 -4 -8 -23 -20 -43 -65 -36 -77 4 -6 0 -11 -8 -11 -10 0
-13 -6 -10 -15 4 -10 0 -15 -12 -16 -16 0 -15 -2 4 -9 12 -5 22 -12 22 -15 0
-4 -4 -3 -10 0 -5 3 -10 -1 -10 -10 0 -9 -4 -14 -9 -11 -5 4 -7 -3 -4 -14 3
-11 9 -17 14 -14 5 3 6 -2 3 -10 -3 -9 -10 -16 -15 -16 -11 0 -7 -23 6 -32 6
-5 5 -8 -3 -8 -7 0 -17 -11 -22 -25 -5 -14 -17 -25 -26 -25 -10 0 -14 -3 -11
-7 4 -3 2 -12 -4 -20 -6 -7 -8 -13 -4 -13 4 0 1 -8 -6 -17 -8 -10 -9 -14 -2
-10 8 5 11 1 10 -12 -1 -15 -4 -17 -14 -9 -11 9 -12 6 -3 -17 9 -24 9 -26 -4
-16 -12 10 -14 8 -12 -13 2 -14 -1 -23 -6 -20 -5 3 -9 0 -8 -7 3 -21 -11 -59
-22 -59 -5 0 -6 -4 -3 -10 3 -5 1 -10 -5 -10 -6 0 -9 -4 -6 -8 3 -5 -3 -18
-14 -30 -14 -14 -16 -22 -7 -25 9 -4 9 -6 -1 -6 -7 -1 -10 -5 -7 -11 3 -5 -2
-10 -12 -10 -15 0 -16 -2 -3 -10 13 -8 13 -10 -2 -10 -11 0 -15 -5 -12 -15 4
-8 1 -15 -5 -15 -6 0 -11 -9 -11 -21 0 -14 -5 -19 -14 -16 -10 4 -12 0 -8 -15
4 -16 2 -19 -9 -13 -11 7 -11 5 1 -10 8 -10 11 -16 5 -13 -5 3 -19 -4 -30 -15
-11 -11 -14 -17 -6 -12 9 5 12 3 9 -6 -3 -8 -10 -13 -16 -12 -5 1 -13 -9 -16
-23 -4 -15 -11 -22 -18 -18 -8 5 -9 1 -5 -10 5 -13 3 -17 -7 -13 -11 4 -13 1
-9 -10 5 -12 3 -14 -7 -8 -8 5 -11 4 -6 -3 3 -6 -1 -18 -10 -26 -8 -9 -12 -16
-8 -16 4 0 -1 -7 -12 -16 -10 -8 -12 -13 -4 -9 10 4 9 2 -2 -8 -10 -8 -18 -19
-18 -26 0 -6 -6 -11 -13 -11 -7 0 -28 -14 -47 -32 -19 -17 -27 -29 -17 -25 11
4 16 3 12 -3 -3 -6 -12 -10 -20 -10 -15 0 -28 -27 -19 -41 3 -5 2 -9 -3 -8
-20 3 -33 -2 -30 -12 1 -6 -8 -12 -20 -14 -13 -1 -23 1 -23 5 0 4 -14 6 -32 5
-29 -2 -30 -1 -12 12 14 11 15 14 4 13 -8 -1 -22 -2 -30 -1 -13 1 -13 2 0 11
11 7 11 10 2 10 -7 0 -11 4 -8 9 4 5 -2 8 -11 7 -9 -2 -19 -8 -21 -14 -2 -7
-9 -9 -14 -6 -7 4 -8 2 -4 -4 4 -7 2 -12 -3 -12 -6 0 -11 5 -11 12 0 6 -3 8
-7 5 -3 -4 2 -16 12 -27 18 -20 18 -21 -1 -14 -10 4 -22 12 -26 18 -5 7 -8 5
-8 -6 0 -9 6 -19 13 -21 9 -4 9 -6 -1 -6 -7 -1 -10 -6 -6 -13 4 -7 3 -8 -5 -4
-6 4 -9 11 -6 16 3 5 1 11 -5 15 -6 4 -7 11 -4 17 4 6 2 8 -4 5 -5 -4 -8 -15
-6 -25 3 -9 -7 -30 -22 -47 l-26 -30 22 32 c24 37 12 46 -14 10 -9 -12 -14
-17 -11 -10 3 6 0 15 -6 19 -8 5 -9 3 -5 -5 10 -15 -25 -11 -36 4 -4 5 -6 0
-5 -12 1 -15 5 -19 13 -12 7 6 15 4 23 -5 8 -10 9 -16 1 -21 -6 -4 -9 -3 -8 2
2 4 -2 8 -7 8 -5 0 -9 -3 -8 -6 1 -3 -4 -6 -12 -6 -8 0 -12 4 -9 9 3 4 1 8 -5
8 -6 0 -8 8 -5 18 5 14 3 14 -11 -3 -14 -17 -17 -18 -25 -5 -8 12 -10 12 -10
1 0 -11 -3 -11 -17 0 -16 12 -17 12 -6 -2 7 -9 9 -20 5 -24 -4 -5 -2 -5 4 -2
6 3 11 0 11 -8 0 -10 -4 -12 -12 -5 -7 5 -16 6 -20 2 -5 -4 -5 1 -2 11 6 15 3
16 -13 7 -25 -13 -30 -13 -24 4 3 8 1 16 -4 19 -4 3 -8 -10 -7 -29 2 -28 0
-32 -11 -23 -11 9 -14 8 -14 0 0 -8 -4 -8 -14 1 -11 10 -11 16 -2 28 9 13 9
13 -6 2 -11 -9 -18 -10 -23 -2 -3 6 -10 8 -15 5 -5 -3 -11 -1 -15 5 -11 18
-26 0 -20 -23 4 -13 3 -17 -2 -11 -4 6 -16 10 -26 8 -9 -1 -15 2 -11 7 3 5 -1
9 -10 9 -8 0 -16 -6 -19 -12 -3 -7 -5 -4 -4 8 1 24 33 26 48 3 5 -9 9 -9 9 -2
0 6 -7 19 -16 27 -17 18 -28 21 -19 6 3 -6 2 -10 -4 -10 -5 0 -12 6 -14 13 -4
9 -6 9 -6 0 -1 -7 -9 -13 -18 -13 -15 0 -16 -2 -3 -10 12 -7 10 -9 -7 -7 -16
1 -19 5 -12 13 12 15 -14 26 -38 17 -10 -4 -14 -2 -9 5 3 6 2 13 -3 16 -11 7
-9 -13 3 -32 6 -10 11 -10 24 -1 11 9 11 6 -2 -7 -13 -13 -20 -15 -23 -6 -7
18 -40 15 -47 -4 -5 -14 -4 -15 7 -5 11 9 17 8 26 -3 8 -10 9 -16 1 -21 -6 -4
-9 -3 -8 2 2 4 -1 9 -7 11 -5 1 -10 -3 -10 -10 0 -6 -7 -13 -15 -15 -13 -4
-13 -3 0 7 13 10 12 11 -3 6 -10 -3 -21 -6 -23 -6 -3 0 1 -6 8 -14 7 -8 16
-12 20 -10 4 2 9 0 12 -5 10 -16 -23 -21 -39 -5 -8 9 -15 11 -15 5 0 -5 6 -14
14 -18 8 -4 15 -17 17 -27 2 -11 10 -21 17 -24 11 -3 12 0 3 16 -16 30 -14 39
4 16 14 -19 14 -18 15 4 0 12 4 22 8 22 4 0 8 -9 8 -20 0 -11 -4 -20 -9 -20
-4 0 -5 -4 -2 -10 3 -5 1 -10 -6 -10 -7 0 -9 -8 -6 -21 3 -13 1 -19 -6 -16 -7
3 -11 9 -10 15 2 6 -4 9 -11 6 -8 -3 -16 2 -19 13 -4 16 -5 16 -6 1 -1 -20 43
-71 52 -61 4 3 7 -1 7 -10 0 -22 -16 -22 -29 1 -8 14 -12 15 -23 4 -7 -7 -8
-12 -3 -11 18 6 55 -25 55 -46 0 -17 2 -17 10 -5 8 13 10 13 10 -1 0 -9 7 -20
16 -23 8 -3 13 -2 10 3 -3 5 1 12 10 15 8 3 12 2 9 -3 -3 -5 0 -13 7 -18 13
-8 18 -9 39 -12 5 0 7 -5 4 -11 -3 -5 -2 -10 4 -10 5 0 18 -3 28 -7 16 -6 17
-5 3 13 -14 17 -13 18 1 7 9 -7 19 -9 24 -5 4 4 2 -3 -4 -16 -7 -12 -16 -20
-22 -17 -5 4 -9 1 -9 -5 0 -7 7 -10 15 -6 8 3 15 0 15 -7 0 -8 4 -6 10 3 9 13
14 7 11 -12 0 -4 10 -2 24 4 13 6 23 14 20 17 -2 4 5 8 16 8 10 1 19 -3 19 -8
0 -6 -4 -8 -9 -5 -4 3 -6 -7 -2 -22 5 -25 6 -25 9 -4 2 12 8 22 13 22 6 0 7
-4 4 -10 -3 -6 1 -7 9 -4 9 3 13 11 9 18 -3 6 3 3 15 -8 18 -16 24 -17 37 -6
21 17 28 8 16 -22 -7 -18 -6 -25 4 -25 7 0 11 6 8 13 -2 7 0 21 7 31 9 15 10
14 4 -7 -5 -20 -4 -23 7 -12 16 14 33 16 24 2 -3 -6 -1 -10 5 -10 6 0 8 -5 4
-12 -6 -10 -4 -10 7 -2 16 12 29 12 47 1 6 -5 12 -4 12 2 0 5 11 8 25 6 30 -3
31 2 8 29 l-18 21 24 -20 c22 -18 24 -18 18 -2 -6 16 -5 16 26 1 37 -19 50
-30 25 -21 -17 6 -35 -9 -25 -19 9 -10 47 16 47 32 0 9 -5 12 -12 8 -7 -4 -8
-3 -4 5 11 17 29 2 23 -20 -3 -10 4 -25 16 -36 20 -16 20 -16 8 0 -7 9 -9 17
-3 17 5 0 17 -10 26 -23 15 -20 15 -20 0 12 -8 18 -11 30 -6 27 6 -3 12 -3 15
1 2 5 3 3 1 -2 -1 -6 4 -19 12 -30 8 -10 14 -13 14 -6 0 14 31 11 43 -4 5 -6
7 -4 4 5 -2 8 -10 14 -16 13 -18 -5 -13 11 9 25 12 7 20 8 20 2 0 -5 -5 -10
-11 -10 -5 0 -7 -5 -4 -10 5 -8 11 -8 19 -1 7 6 16 8 19 4 4 -3 7 0 7 8 0 11
2 11 10 -1 11 -17 32 -20 42 -5 5 6 8 5 8 -3 0 -7 5 -10 10 -7 6 4 8 11 5 16
-4 5 -1 9 5 9 7 0 10 -7 6 -15 -3 -8 2 -21 10 -30 14 -13 18 -13 39 1 13 9 29
13 35 9 18 -11 11 -23 -12 -19 -21 4 -22 4 -3 -5 14 -6 23 -5 31 5 10 12 13
12 24 -1 14 -16 25 -13 39 13 7 14 5 18 -9 18 -14 0 -16 -4 -9 -12 7 -8 6 -14
-1 -19 -9 -6 -14 0 -11 17 0 4 -8 5 -19 3 -13 -3 -18 0 -14 7 4 6 3 8 -4 4 -6
-3 -13 -2 -16 3 -7 11 13 9 32 -2 17 -12 27 20 12 38 -11 13 -10 14 4 9 9 -3
16 -15 16 -25 0 -23 8 -24 31 -3 11 10 19 12 24 5 3 -6 0 -11 -9 -11 -8 0 -13
-7 -11 -17 2 -10 4 -22 4 -27 1 -6 8 -1 16 10 13 16 16 17 25 4 5 -8 10 -10
10 -5 0 6 -6 17 -12 24 -11 11 -9 11 10 1 16 -7 22 -17 18 -28 -5 -15 -4 -15
7 -2 19 23 55 41 62 31 3 -5 2 -11 -2 -14 -5 -2 -2 -2 6 0 8 2 17 -1 21 -6 3
-6 11 -2 17 9 11 16 10 18 -12 14 -19 -3 -23 0 -22 15 1 16 4 18 15 8 20 -16
55 -20 46 -5 -5 8 0 7 11 -2 17 -14 18 -13 12 3 -10 26 1 20 17 -10 8 -16 15
-23 16 -17 0 7 16 10 41 9 35 -3 38 -1 22 10 -12 9 -20 10 -24 3 -4 -6 -12 -1
-20 13 -11 22 -11 23 4 10 14 -11 17 -11 17 0 1 9 4 8 11 -4 6 -9 15 -14 21
-11 6 4 15 0 20 -7 6 -10 7 -3 4 21 -5 29 -4 31 4 12 6 -14 14 -20 22 -16 8 5
9 2 4 -12 -6 -15 -5 -16 5 -7 10 10 9 17 -6 35 -11 13 -13 17 -5 11 22 -20 29
-16 36 22 3 19 11 35 18 36 34 2 84 9 106 14 14 3 34 8 45 9 43 8 132 35 159
49 16 9 48 19 70 23 23 3 44 12 49 18 5 8 10 7 17 -4 8 -13 10 -13 10 2 0 10
7 15 18 14 9 -2 20 2 24 8 4 6 11 11 15 11 4 1 17 5 28 11 27 14 44 12 55 -5
4 -8 26 -16 47 -17 21 -2 55 -5 76 -7 20 -2 37 -1 37 4 0 4 8 6 18 5 9 -2 20
1 23 6 3 5 20 10 37 11 18 1 34 8 37 15 2 6 9 12 15 12 6 0 8 -5 5 -10 -3 -6
-4 -10 -1 -10 3 0 10 9 16 19 9 17 7 19 -10 16 -11 -2 -18 0 -15 5 3 5 18 7
34 5 19 -3 37 3 52 16 12 10 19 19 15 19 -4 0 6 11 22 25 17 14 35 24 40 23 6
-2 10 2 11 7 2 15 -22 12 -35 -4 -9 -11 -12 -12 -19 -1 -5 9 -4 11 3 6 8 -5
11 3 8 25 l-4 33 18 -24 c10 -14 20 -19 24 -12 3 6 1 12 -5 14 -5 2 -7 11 -3
21 3 10 13 16 20 13 8 -3 14 -1 14 4 0 6 8 10 18 10 14 0 15 -2 2 -10 -9 -6
-10 -10 -3 -10 6 0 14 4 18 10 3 5 13 7 23 4 14 -5 14 -4 -1 6 -11 7 -30 10
-43 7 -13 -2 -24 0 -24 5 0 5 -6 6 -12 2 -10 -5 -10 -4 -2 5 6 7 18 13 25 15
27 4 52 23 40 30 -15 10 -33 -3 -24 -17 4 -7 -12 3 -35 22 -24 18 -46 31 -49
27 -9 -8 -34 14 -27 25 3 5 -1 18 -9 29 -13 18 -15 19 -21 5 -3 -9 -2 -13 4
-10 6 3 10 3 11 -2 0 -4 2 -16 4 -26 2 -10 -1 -14 -7 -11 -7 4 -8 2 -4 -5 4
-6 12 -9 17 -6 5 4 9 2 9 -3 0 -6 -6 -12 -14 -15 -17 -7 -29 30 -14 39 6 4 0
13 -15 21 -26 13 -28 38 -4 54 5 4 5 9 -1 13 -6 3 -14 -3 -17 -15 -7 -21 -8
-20 -25 6 -18 28 -17 60 2 49 6 -4 5 -10 -3 -15 -11 -7 -11 -9 -1 -9 7 0 11
-4 7 -9 -3 -5 -1 -12 4 -16 6 -3 8 3 6 15 -2 11 0 20 4 20 4 0 8 7 8 15 0 8
-4 12 -8 9 -5 -3 -21 3 -36 13 -15 10 -24 12 -20 6 5 -7 4 -13 -2 -13 -5 0
-13 5 -17 11 -4 8 -9 7 -15 -2 -7 -11 -9 -9 -10 6 0 11 -3 14 -6 8 -3 -10 -8
-9 -20 2 -8 8 -19 12 -25 9 -6 -4 -8 -2 -5 3 4 6 0 13 -8 17 -8 3 -20 17 -27
31 -6 14 -17 25 -25 25 -7 0 -13 5 -13 11 0 5 5 7 12 3 7 -4 8 -3 4 5 -6 8
-12 9 -20 2 -9 -8 -16 -4 -26 14 -7 13 -17 22 -22 19 -4 -3 -8 -1 -8 5 0 6 -7
7 -17 4 -10 -4 -14 -2 -10 4 4 6 0 14 -9 17 -10 4 -13 2 -8 -7 9 -13 -26 12
-38 28 -5 6 -8 4 -8 -4 0 -11 -4 -9 -14 4 -8 11 -12 24 -9 30 4 5 3 7 -2 3
-13 -12 -45 11 -39 27 4 8 1 15 -5 15 -6 0 -11 5 -11 11 0 5 6 7 13 4 6 -4 3
2 -9 12 -11 10 -20 26 -18 36 1 9 -1 17 -6 17 -4 0 -6 10 -6 22 1 13 -3 29 -8
37 -8 11 -8 13 1 7 9 -5 11 -2 7 8 -3 9 -9 16 -13 16 -4 0 -7 11 -7 25 0 14 4
25 9 25 6 0 6 5 0 13 -11 14 -11 47 0 65 5 6 5 12 0 12 -4 0 -8 20 -8 45 0 25
3 45 8 45 4 0 5 6 0 13 -10 16 -11 87 0 87 4 0 5 5 2 10 -3 6 -2 10 2 10 5 0
8 98 7 218 0 119 3 225 8 235 5 10 10 44 11 76 1 33 5 57 9 55 7 -5 8 -2 9
100 1 44 -3 71 -11 76 -9 6 -9 9 1 13 10 4 10 6 2 6 -7 1 -13 10 -13 21 0 11
-6 20 -12 21 -7 0 -3 5 10 11 12 6 22 15 22 21 0 5 7 6 16 3 8 -3 12 -2 9 4
-3 6 5 10 20 10 14 0 28 7 32 16 5 13 7 13 14 2 6 -9 9 -7 9 9 0 16 4 21 15
16 10 -3 15 0 13 8 -2 7 3 14 10 15 6 1 17 2 23 3 5 0 7 6 3 12 -4 8 0 8 15 0
16 -9 21 -9 19 0 -2 6 9 12 25 13 16 1 31 7 35 13 4 6 24 18 45 27 21 8 35 11
32 6 -8 -13 2 -13 27 1 12 7 18 7 14 1 -4 -6 10 -10 37 -9 23 0 48 -3 55 -7 7
-4 12 -2 12 4 0 6 5 8 10 5 6 -3 24 9 42 27 17 18 25 24 18 13 -13 -19 -13
-18 10 1 14 12 33 20 43 19 9 -2 15 0 13 3 -2 4 2 13 10 20 11 10 14 10 14 0
0 -8 3 -9 8 -3 8 11 28 17 52 18 8 0 21 5 29 11 12 9 13 8 6 -4 -7 -13 -6 -13
7 -2 9 7 28 11 42 8 14 -3 26 0 26 5 0 6 5 7 10 4 12 -8 42 13 35 24 -2 4 11
7 30 6 18 0 33 4 32 10 -1 5 8 9 21 9 12 -1 22 3 22 9 0 6 3 8 6 4 4 -3 15 4
26 16 18 20 19 21 13 2 -5 -16 -4 -18 6 -7 7 6 26 12 41 12 15 0 28 5 28 11 0
5 -5 7 -12 3 -7 -4 -8 -3 -4 4 4 7 14 12 22 12 9 0 12 5 8 12 -4 6 -3 8 3 5 6
-4 19 0 29 7 12 10 23 11 31 5 7 -7 14 -6 19 2 5 8 3 10 -7 5 -8 -4 -5 0 6 9
12 10 21 12 23 5 2 -6 14 0 27 14 17 19 25 22 34 13 9 -9 11 -7 5 8 -4 11 -4
17 1 13 4 -4 14 0 21 10 8 10 13 12 14 5 0 -7 4 -13 10 -13 5 0 6 7 3 17 -4
11 -3 14 5 9 7 -4 12 -2 12 4 0 7 7 9 17 6 10 -4 15 -4 11 -1 -3 3 6 18 20 32
19 20 23 28 13 31 -10 3 -7 9 10 19 13 8 16 12 7 9 -12 -3 -15 -1 -12 9 3 8
12 11 20 8 8 -3 14 -1 14 4 0 5 16 15 35 23 19 7 32 17 29 22 -5 8 11 12 30 9
5 -1 3 5 -4 14 -11 13 -10 14 5 9 14 -6 16 -4 10 6 -6 10 -4 12 9 7 9 -4 15
-3 12 2 -3 5 1 12 10 15 9 4 14 13 10 21 -3 8 0 14 7 12 7 -1 11 4 9 12 -3 12
-1 12 14 0 14 -11 16 -11 10 0 -5 8 -3 17 5 22 8 4 15 13 15 19 1 5 2 15 3 21
0 5 6 7 13 3 8 -5 9 -2 5 9 -3 10 -2 17 3 17 5 0 6 7 3 17 -4 11 -3 14 5 9 7
-4 12 -2 12 4 0 6 5 8 10 5 6 -3 10 1 10 9 0 10 6 13 15 10 10 -4 15 0 15 11
0 14 3 15 14 6 11 -9 14 -8 12 6 0 10 9 22 22 28 12 5 22 15 22 22 0 6 5 15
12 19 7 5 8 3 3 -5 -5 -10 -1 -9 16 1 13 8 36 13 52 12 15 0 27 4 27 10 0 6 5
4 10 -4 5 -8 10 -10 10 -4 0 14 59 24 66 12 3 -4 13 -4 23 2 10 5 21 6 25 3 3
-3 6 -1 6 6 0 7 5 9 12 5 7 -4 8 -3 4 5 -4 6 -13 8 -19 5 -7 -4 -1 4 13 18 14
13 30 22 35 19 6 -3 3 4 -5 14 -9 11 -10 16 -2 11 11 -7 15 8 15 66 0 10 4 15
8 12 5 -3 9 2 9 10 0 9 6 15 13 14 6 -2 11 3 9 11 -3 12 -1 12 14 0 12 -9 15
-9 10 -1 -5 8 1 12 19 12 14 0 24 4 21 8 -3 4 8 7 25 6 16 -1 26 2 23 7 -5 8
10 13 30 10 4 -1 14 3 21 9 6 5 24 11 39 12 14 1 26 5 26 9 0 4 7 10 16 13 8
3 12 2 9 -4 -3 -6 1 -7 10 -4 9 4 14 13 11 20 -3 8 0 11 10 7 8 -3 22 1 31 8
12 10 15 10 9 1 -4 -7 9 -3 29 8 20 11 34 16 30 10 -3 -6 0 -7 9 -4 9 3 16 10
16 16 0 5 5 6 10 3 6 -3 10 -1 10 4 0 6 6 10 13 8 6 -1 11 4 9 12 -3 12 0 12
12 2 13 -11 17 -10 22 3 4 10 13 15 20 12 8 -3 14 -1 14 5 0 6 5 7 10 4 6 -3
10 -1 10 5 0 6 5 8 10 5 6 -3 10 -1 10 5 0 6 4 9 9 5 6 -3 8 4 6 15 -2 11 0
20 4 20 5 0 8 8 7 18 -1 11 6 17 21 16 12 0 20 3 18 7 -4 6 17 20 35 23 19 4
60 53 55 66 -5 12 -4 12 6 3 10 -10 9 -17 -5 -32 -10 -11 -15 -25 -10 -32 4
-8 3 -10 -4 -5 -7 4 -12 3 -12 -3 0 -16 24 -19 38 -4 8 7 17 11 22 8 4 -3 11
2 14 11 3 9 11 14 18 12 7 -3 21 5 33 17 11 11 16 14 10 5 -5 -9 -1 -6 10 5
12 12 26 20 32 18 6 -2 18 3 27 12 9 9 21 13 28 9 9 -5 8 -2 -1 9 -12 15 -12
17 1 12 9 -4 22 1 31 9 9 9 20 16 26 16 5 0 13 5 17 12 5 7 3 8 -6 3 -9 -6
-11 -4 -6 4 5 7 10 10 13 7 9 -8 44 14 38 24 -3 5 0 12 6 16 8 4 9 3 5 -4 -4
-7 -3 -12 2 -12 11 0 53 35 49 41 -1 2 2 1 7 -3 12 -9 88 51 81 63 -4 5 2 6
11 2 14 -5 16 -3 11 13 -7 18 -6 18 9 -1 11 -14 15 -15 14 -5 -4 28 0 38 16
44 14 6 15 4 4 -11 -7 -10 2 -2 21 18 19 19 30 28 24 19 -5 -9 3 -2 19 14 16
17 25 24 21 16 -4 -8 4 -3 17 13 25 27 45 37 32 15 -4 -7 -3 -8 5 -4 9 6 9 11
0 22 -10 12 -9 13 4 8 12 -4 20 2 27 22 6 15 18 33 27 39 13 10 13 14 3 20 -9
6 -11 4 -5 -5 5 -9 4 -11 -3 -6 -7 4 -12 16 -12 26 0 10 -4 22 -10 25 -6 3 -7
-1 -4 -12 5 -17 5 -17 -6 0 -10 15 -18 43 -22 76 -2 19 3 31 12 26 16 -10 11
0 -12 27 -19 20 -32 24 -68 23 -25 -1 -48 3 -52 9 -6 8 -11 6 -18 -4 -8 -13
-10 -12 -10 3 0 16 -2 16 -22 4 -16 -10 -54 -14 -121 -13 -53 1 -97 -1 -97 -4
0 -8 -18 -9 -147 -13 -61 -2 -117 -8 -125 -13 -15 -12 -77 -13 -95 -1 -6 4
-14 4 -16 0 -3 -5 -51 -8 -107 -7 -56 0 -104 -4 -107 -9 -4 -6 -1 -7 7 -2 8 5
11 4 7 -1 -6 -10 -46 -12 -63 -3 -5 3 -19 4 -31 3 -13 0 -23 3 -23 7 0 5 -13
7 -30 5 -16 -2 -30 1 -30 6 0 5 -9 4 -20 -2 -15 -8 -21 -6 -30 10 -7 13 -16
18 -23 13 -16 -10 -67 -13 -67 -3 0 7 -3 8 -58 11 -17 1 -37 8 -43 15 -6 8
-15 11 -21 8 -5 -3 -15 -1 -23 6 -9 8 -15 8 -20 0 -4 -7 -11 -8 -18 -1 -7 5
-37 11 -67 12 -30 2 -57 7 -60 11 -3 4 -20 8 -38 10 -18 1 -32 5 -32 8 0 4
-21 7 -47 9 -26 1 -51 8 -55 14 -6 9 -8 9 -8 0 0 -14 -50 7 -50 21 0 5 -7 3
-15 -4 -8 -7 -15 -8 -15 -3 0 6 -25 10 -56 9 -37 -1 -58 3 -61 12 -3 6 -13 12
-23 12 -10 0 -23 7 -30 15 -15 18 -34 20 -25 3 4 -7 0 -5 -8 4 -8 10 -17 15
-20 11 -4 -3 -7 0 -7 8 0 11 -2 11 -10 -1 -8 -13 -10 -12 -10 3 0 16 -10 21
-37 18 -6 -1 -14 3 -18 8 -3 6 -12 8 -19 5 -7 -3 -18 2 -25 10 -7 8 -20 12
-28 9 -10 -4 -14 -2 -9 5 9 14 -12 26 -49 27 -16 0 -30 6 -30 12 0 6 -4 15 -9
20 -5 5 -6 3 -2 -4 5 -9 0 -13 -14 -13 -14 0 -19 4 -14 12 5 8 2 9 -9 5 -9 -3
-23 1 -32 10 -9 8 -19 13 -22 9 -3 -3 -12 -1 -20 5 -7 6 -13 8 -13 4 0 -4 -8
-1 -17 6 -13 11 -15 11 -9 1 7 -11 4 -11 -15 0 -13 7 -27 18 -31 23 -5 6 -8 6
-8 1 0 -6 -7 -1 -16 10 -8 10 -12 13 -9 6 6 -11 3 -12 -14 -2 -12 6 -19 15
-17 19 3 4 -1 8 -9 8 -8 0 -12 -4 -9 -9 8 -12 -39 14 -48 27 -5 6 -8 4 -8 -5
0 -13 -2 -13 -9 -1 -5 8 -16 11 -25 8 -9 -4 -15 -1 -13 6 1 7 -9 12 -26 11
-19 0 -26 4 -23 13 3 7 2 12 -2 12 -29 -5 -72 3 -67 11 4 6 -7 10 -24 10 -17
0 -31 5 -31 11 0 5 -4 8 -8 5 -5 -3 -34 1 -65 8 -30 7 -61 10 -67 6 -6 -4 -32
3 -57 16 -26 12 -55 21 -65 19 -10 -2 -18 0 -18 5 0 5 -12 7 -26 4 -14 -3 -23
-1 -20 4 3 5 -17 8 -44 7 -27 -1 -47 2 -45 6 3 4 -2 9 -10 13 -8 3 -15 0 -15
-6 0 -7 -4 -7 -12 -1 -7 6 -39 9 -70 8 -50 -2 -58 0 -58 16 0 25 -16 32 -41
18 -13 -6 -19 -7 -15 -1 6 11 -53 46 -62 37 -3 -3 1 -5 8 -5 7 0 11 -3 8 -6
-4 -3 -17 1 -30 8 -12 8 -37 14 -55 13 -19 -1 -29 3 -26 9 4 5 -1 7 -10 3 -9
-3 -23 0 -31 8 -11 11 -16 12 -19 2 -4 -9 -6 -9 -6 1 -1 7 -5 11 -10 7 -5 -3
-13 0 -17 6 -4 7 -3 9 4 5 6 -3 13 -3 16 2 2 4 -6 8 -19 8 -13 0 -21 -4 -19
-8 3 -4 0 -8 -5 -8 -6 0 -11 5 -11 11 0 8 -6 7 -17 -2 -14 -12 -16 -12 -11 2
5 12 -1 15 -26 14 -18 -1 -38 -5 -44 -9 -6 -3 -14 -1 -18 5 -5 8 -3 9 6 4 9
-5 11 -4 6 4 -6 9 -11 9 -21 1 -10 -8 -14 -7 -18 7 -4 17 -5 17 -6 0 0 -10 -6
-15 -11 -12 -6 4 -8 11 -5 16 4 5 1 9 -4 9 -6 0 -11 -8 -11 -17 0 -15 -2 -15
-9 -4 -12 19 -51 22 -51 3 0 -9 -7 -6 -21 9 -11 13 -18 18 -14 12 4 -8 0 -13
-9 -13 -9 0 -16 5 -16 11 0 6 -9 9 -20 6 -11 -3 -20 -1 -20 4 0 4 -7 5 -17 2
-11 -4 -14 -3 -9 5 4 7 5 12 1 12 -3 0 -8 -7 -11 -15z m-1070 -53 c3 -5 -1 -9
-9 -9 -8 0 -15 4 -15 9 0 4 4 8 9 8 6 0 12 -4 15 -8z m1396 2 c0 -8 -19 -13
-24 -6 -3 5 1 9 9 9 8 0 15 -2 15 -3z m-3453 -1069 c0 -8 -4 -12 -9 -9 -5 3
-6 10 -3 15 9 13 12 11 12 -6z m6803 -51 c11 -12 11 -15 -1 -12 -8 2 -13 -3
-11 -10 1 -8 -2 -11 -8 -7 -8 5 -8 11 -1 19 6 7 8 16 4 19 -3 4 -4 7 -1 7 3 0
11 -7 18 -16z m-34 -36 c4 -6 3 -8 -4 -4 -6 3 -13 -3 -17 -14 -3 -11 -11 -20
-16 -20 -5 0 -2 11 7 25 19 29 20 29 30 13z m324 9 c0 -2 -15 -13 -32 -26
l-33 -22 28 25 c26 24 37 31 37 23z m-370 -61 c0 -2 -7 -7 -16 -10 -8 -3 -12
-2 -9 4 6 10 25 14 25 6z m-6600 -231 c0 -2 -6 -5 -13 -8 -8 -3 -14 1 -14 8 0
7 6 11 14 8 7 -3 13 -6 13 -8z m3590 -1603 c0 -5 -7 -17 -15 -28 -14 -18 -14
-17 -4 9 12 27 19 34 19 19z m-192 -121 c1 -25 8 -49 15 -53 9 -6 8 -8 -3 -8
-13 0 -13 -1 0 -10 8 -5 15 -15 15 -22 1 -7 6 -12 13 -11 7 2 9 -4 5 -14 -4
-10 -2 -14 4 -10 6 4 9 -7 8 -28 -1 -20 3 -31 9 -28 5 4 7 -1 3 -10 -3 -10 -3
-17 1 -17 12 0 9 -634 -3 -642 -6 -5 -5 -8 3 -8 9 0 10 -5 2 -19 -6 -11 -6
-22 -1 -25 5 -3 11 -17 13 -31 4 -18 2 -22 -6 -16 -7 6 -11 2 -12 -15 -1 -13
2 -21 7 -18 5 3 0 -11 -11 -30 -18 -32 -18 -36 -3 -36 15 0 14 -2 -3 -15 -16
-13 -17 -16 -4 -25 12 -7 12 -10 1 -10 -7 0 -11 -6 -7 -15 3 -8 2 -15 -3 -15
-4 0 -6 -12 -3 -26 3 -16 -1 -30 -9 -35 -11 -7 -11 -9 -1 -9 7 0 10 -5 7 -10
-4 -6 -10 -8 -15 -5 -4 3 -6 -5 -2 -17 4 -16 2 -19 -9 -13 -11 6 -12 5 -2 -5
9 -10 10 -17 1 -27 -6 -7 -12 -21 -13 -31 -5 -41 -18 -81 -25 -77 -10 6 -7
-15 3 -32 5 -8 3 -13 -5 -13 -10 0 -11 -2 0 -8 14 -9 13 -72 -1 -72 -5 0 -6
-7 -3 -16 3 -8 2 -13 -3 -9 -14 8 -20 -17 -9 -37 7 -15 4 -18 -15 -18 -14 0
-30 -7 -37 -15 -7 -9 -15 -13 -18 -10 -3 3 -10 1 -16 -5 -10 -8 -53 -14 -180
-25 -37 -3 -77 -25 -46 -25 7 0 10 -3 7 -6 -4 -4 -13 -1 -22 6 -12 10 -15 10
-15 -4 0 -9 -5 -16 -11 -16 -6 0 -8 -8 -5 -18 5 -15 -2 -21 -34 -32 -22 -7
-47 -13 -56 -13 -8 0 -13 -6 -10 -14 4 -9 1 -11 -5 -7 -7 4 -21 -4 -31 -17
-11 -13 -17 -18 -13 -12 4 9 1 11 -10 7 -11 -5 -13 -10 -5 -19 8 -10 7 -15 -2
-21 -7 -4 -10 -4 -6 1 8 9 -9 35 -23 35 -5 0 -6 -6 -3 -13 3 -8 -2 -20 -11
-27 -13 -11 -14 -10 -9 6 7 18 6 18 -15 -1 -14 -12 -21 -27 -18 -41 3 -17 0
-21 -11 -16 -13 5 -13 2 1 -18 9 -14 17 -29 17 -35 0 -5 -5 -2 -11 8 -6 9 -14
15 -18 12 -5 -2 -11 6 -13 20 -3 14 0 26 8 29 8 3 14 11 14 18 0 9 -3 8 -10
-2 -7 -10 -10 -11 -10 -2 0 7 11 17 25 24 13 6 22 15 19 19 -3 5 3 9 12 9 14
0 15 3 6 12 -14 14 -16 32 -2 23 6 -3 7 1 4 9 -3 9 -9 14 -13 12 -4 -3 -5 11
-3 30 2 19 9 34 16 34 6 0 4 5 -4 10 -8 5 -10 10 -4 10 7 0 14 9 17 20 3 11
11 19 19 18 7 -2 12 3 10 10 -1 6 3 12 9 12 5 0 8 4 5 9 -3 5 1 12 10 15 13 5
14 9 4 21 -10 12 -8 14 8 10 16 -3 18 1 14 22 -3 18 -1 24 7 19 6 -4 11 -1 11
8 0 9 5 16 11 16 6 0 9 7 5 15 -3 10 1 15 12 15 15 0 15 2 2 10 -13 9 -7 14
13 11 4 0 7 4 7 9 0 5 3 9 8 7 4 -1 8 3 10 8 1 6 -2 10 -7 10 -5 0 -13 4 -18
9 -4 5 -3 6 3 3 7 -4 17 0 24 8 7 8 9 15 4 15 -5 0 2 7 14 16 12 8 20 20 17
25 -4 5 0 9 7 9 9 0 9 3 -2 10 -13 8 -12 10 3 10 15 0 16 3 6 21 -8 15 -8 19
0 15 6 -4 11 0 11 9 0 9 4 14 9 10 5 -3 15 11 21 30 6 19 15 33 20 30 4 -3 11
2 14 11 4 9 2 13 -5 8 -8 -4 -7 0 0 15 7 11 14 21 17 21 3 0 2 -4 -1 -10 -3
-5 -1 -10 6 -10 6 0 9 8 6 20 -3 11 -1 18 4 14 5 -3 9 2 9 10 0 9 5 16 11 16
5 0 7 5 4 10 -3 6 1 10 11 10 14 0 14 3 4 16 -8 8 -9 14 -4 13 26 -5 36 2 31
21 -3 11 -1 18 4 14 5 -3 9 2 9 12 0 19 55 85 64 77 3 -4 6 1 6 11 0 9 4 14
10 11 5 -3 7 0 4 8 -3 8 0 18 5 22 6 3 9 11 6 16 -4 5 -1 9 5 9 6 0 9 4 5 9
-3 5 5 17 17 27 16 11 17 15 5 10 -15 -5 -16 -3 -7 14 6 11 15 20 21 20 6 0 7
5 4 10 -3 6 -3 16 2 23 4 6 8 15 8 18 0 9 32 38 37 34 2 -2 5 7 6 20 5 66 1
106 -9 100 -9 -6 -4 29 7 47 5 7 3 8 -7 3 -12 -8 -12 -6 0 8 11 14 11 17 0 17
-11 0 -11 2 1 10 8 5 10 10 4 10 -8 0 -12 28 -12 83 0 139 -1 149 -14 141 -8
-5 -7 0 2 11 10 12 10 16 2 11 -10 -6 -12 2 -10 34 1 27 -3 44 -13 51 -10 6
-11 9 -1 9 7 0 10 5 6 11 -11 19 -11 109 0 109 6 0 2 7 -8 15 -11 8 -16 15
-10 16 19 1 46 8 50 12 16 16 29 -2 32 -42z m303 -1258 c13 -16 12 -17 -3 -4
-10 7 -18 15 -18 17 0 8 8 3 21 -13z m-721 -77 c0 -3 -4 -8 -10 -11 -5 -3 -10
-1 -10 4 0 6 5 11 10 11 6 0 10 -2 10 -4z m1071 -173 c13 -16 12 -17 -3 -4
-17 13 -22 21 -14 21 2 0 10 -8 17 -17z m-456 -51 c-3 -3 -11 0 -18 7 -9 10
-8 11 6 5 10 -3 15 -9 12 -12z m22 -18 c-3 -3 -12 -4 -19 -1 -8 3 -5 6 6 6 11
1 17 -2 13 -5z m474 -11 c12 -16 12 -17 -2 -6 -9 7 -20 9 -24 5 -5 -4 -5 -1
-1 6 9 16 11 15 27 -5z m-247 -31 c3 -5 -1 -9 -9 -9 -8 0 -12 4 -9 9 3 4 7 8
9 8 2 0 6 -4 9 -8z m296 4 c0 -3 -4 -8 -10 -11 -5 -3 -10 -1 -10 4 0 6 5 11
10 11 6 0 10 -2 10 -4z m-242 -31 c-3 -3 -9 2 -12 12 -6 14 -5 15 5 6 7 -7 10
-15 7 -18z m-1315 -3 c-10 -10 -20 -17 -22 -16 -6 5 20 34 30 34 5 0 1 -8 -8
-18z m1367 0 c7 -8 7 -9 -1 -3 -6 5 -18 7 -25 4 -8 -3 -14 -1 -14 5 0 13 27 9
40 -6z m190 -11 c0 -6 -4 -13 -10 -16 -5 -3 -10 1 -10 9 0 9 5 16 10 16 6 0
10 -4 10 -9z m73 1 c-8 -5 -2 -12 18 -21 29 -13 31 -31 3 -31 -8 0 -13 4 -9 9
3 6 -4 15 -15 21 -13 7 -20 7 -20 0 0 -5 5 -10 11 -10 5 0 7 -5 4 -11 -5 -6
-12 -4 -20 8 -11 14 -10 19 4 30 9 7 21 12 26 13 6 0 5 -4 -2 -8z m-1868 -71
c1 -10 -4 -18 -11 -17 -22 3 -28 15 -10 22 9 3 13 11 9 18 -3 6 -2 8 2 3 5 -4
9 -16 10 -26z m-442 -106 c4 0 7 -3 7 -7 0 -5 0 -13 0 -20 0 -6 -9 -1 -20 12
-23 26 -26 35 -7 23 6 -4 15 -8 20 -8z m201 4 c-2 -4 0 -10 6 -14 5 -3 10 -12
10 -18 0 -7 -5 -4 -11 6 -6 9 -14 15 -19 12 -4 -3 -10 1 -13 8 -3 7 3 13 13
13 10 0 17 -4 14 -7z m2051 2 c3 -5 2 -12 -3 -15 -5 -3 -9 1 -9 9 0 17 3 19
12 6z m45 -16 c0 -12 -19 -12 -23 0 -4 9 -1 12 9 8 7 -3 14 -7 14 -8z m-2177
-8 c3 -8 -1 -14 -9 -14 -15 0 -18 9 -7 20 9 9 10 9 16 -6z m2133 -32 c-16 -25
-27 -30 -39 -19 -9 9 4 35 14 28 5 -3 9 0 9 6 0 6 5 8 10 5 6 -3 10 -1 10 6 0
7 3 9 6 6 4 -4 -1 -18 -10 -32z m-2216 21 c0 -3 -4 -8 -10 -11 -5 -3 -10 -1
-10 4 0 6 5 11 10 11 6 0 10 -2 10 -4z m781 -143 c13 -16 12 -17 -3 -4 -10 7
-18 15 -18 17 0 8 8 3 21 -13z m-1008 -30 c-7 -3 -9 -11 -6 -19 3 -10 0 -12
-10 -8 -9 3 -13 13 -10 24 3 12 10 17 21 12 10 -3 11 -7 5 -9z m997 -6 c0 -11
-1 -18 -3 -16 -1 2 -8 11 -15 20 -9 13 -9 16 3 16 8 0 15 -9 15 -20z m-690
-19 c0 -4 -7 -8 -15 -8 -8 0 -15 -4 -15 -8 0 -5 -6 -9 -14 -9 -10 0 -11 4 -4
17 10 16 48 22 48 8z m708 -33 c-3 -3 -9 2 -12 12 -6 14 -5 15 5 6 7 -7 10
-15 7 -18z m-998 11 c0 -3 -4 -8 -10 -11 -5 -3 -10 -1 -10 4 0 6 5 11 10 11 6
0 10 -2 10 -4z m64 -14 c2 -4 -5 -9 -17 -9 -17 -2 -19 0 -7 7 18 12 18 12 24
2z m166 -36 c0 -3 -4 -8 -10 -11 -5 -3 -10 -1 -10 4 0 6 5 11 10 11 6 0 10 -2
10 -4z m-60 -48 c0 -11 -18 -10 -25 2 -4 6 -11 7 -17 4 -7 -4 -8 -2 -4 5 4 6
12 8 18 5 8 -5 9 -1 5 12 -7 18 -7 18 8 0 8 -11 15 -23 15 -28z m236 0 c4 -7
3 -8 -4 -4 -7 4 -12 2 -12 -5 0 -7 -3 -10 -6 -6 -6 5 3 27 11 27 2 0 7 -5 11
-12z m48 -20 c-3 -4 0 -8 5 -8 21 0 11 -16 -11 -17 -16 -2 -19 0 -9 6 8 6 9
11 3 15 -6 4 -15 -2 -21 -11 -9 -16 -10 -16 -11 -1 0 16 13 25 37 25 7 0 10
-4 7 -9z m761 -6 c-3 -3 -11 0 -18 7 -9 10 -8 11 6 5 10 -3 15 -9 12 -12z m78
0 c15 -16 15 -19 2 -19 -8 0 -13 3 -10 5 3 3 0 11 -6 19 -17 20 -5 16 14 -5z
m-616 -23 c-16 -22 -16 -22 -14 -1 0 11 5 18 9 16 4 -3 8 0 8 7 0 7 3 10 6 6
3 -3 -1 -16 -9 -28z m-76 -2 c-10 -9 -11 -8 -5 6 3 10 9 15 12 12 3 -3 0 -11
-7 -18z m209 17 c0 -8 -19 -13 -24 -6 -3 5 1 9 9 9 8 0 15 -2 15 -3z m98 -29
c-3 -3 -9 2 -12 12 -6 14 -5 15 5 6 7 -7 10 -15 7 -18z m232 20 c0 -2 -9 -9
-20 -15 -12 -6 -20 -7 -20 -1 0 5 8 12 18 14 9 3 18 5 20 6 1 0 2 -1 2 -4z
m-255 -35 c-6 -9 -9 -9 -16 1 -10 17 0 34 13 21 6 -6 7 -16 3 -22z"/>
<path d="M4719 2503 l-24 -26 27 19 c15 10 28 22 28 27 0 12 -5 8 -31 -20z"/>
<path d="M5640 1570 c-9 -6 -10 -10 -3 -10 6 0 15 5 18 10 8 12 4 12 -15 0z"/>
<path d="M1620 6420 c-8 -5 -10 -10 -5 -10 6 0 17 5 25 10 8 5 11 10 5 10 -5
0 -17 -5 -25 -10z"/>
<path d="M8745 5689 c-4 -6 -5 -12 -2 -15 2 -3 7 2 10 11 7 17 1 20 -8 4z"/>
<path d="M1406 5247 c3 -10 9 -15 12 -12 3 3 0 11 -7 18 -10 9 -11 8 -5 -6z"/>
<path d="M6940 4610 c-9 -6 -10 -10 -3 -10 6 0 15 5 18 10 8 12 4 12 -15 0z"/>
<path d="M1665 4589 c-4 -6 -5 -12 -2 -15 2 -3 7 2 10 11 7 17 1 20 -8 4z"/>
<path d="M2610 3896 c0 -2 8 -10 18 -17 15 -13 16 -12 3 4 -13 16 -21 21 -21
13z"/>
<path d="M5636 1885 c-3 -8 -1 -15 4 -15 6 0 10 7 10 15 0 8 -2 15 -4 15 -2 0
-6 -7 -10 -15z"/>
<path d="M5750 1844 c-11 -13 -9 -19 15 -42 15 -15 25 -22 21 -15 -3 6 -1 13
6 16 7 2 5 3 -4 2 -26 -4 -44 21 -28 40 7 8 10 15 7 15 -2 0 -10 -7 -17 -16z"/>
<path d="M5820 1806 c0 -2 7 -9 15 -16 9 -7 15 -8 15 -2 0 5 -7 12 -15 16 -8
3 -15 4 -15 2z"/>
<path d="M5870 1762 c0 -5 7 -9 15 -9 8 0 12 4 9 9 -3 4 -9 8 -15 8 -5 0 -9
-4 -9 -8z"/>
<path d="M5826 1752 c-3 -4 4 -9 15 -9 23 -2 25 3 4 10 -8 4 -16 3 -19 -1z"/>
<path d="M3195 1721 c-3 -5 -2 -12 3 -15 5 -3 9 1 9 9 0 17 -3 19 -12 6z"/>
<path d="M3230 1706 c0 -2 7 -7 16 -10 8 -3 12 -2 9 4 -6 10 -25 14 -25 6z"/>
<path d="M3695 1700 c-3 -5 -1 -10 4 -10 6 0 11 5 11 10 0 6 -2 10 -4 10 -3 0
-8 -4 -11 -10z"/>
<path d="M5756 1693 c-7 -7 17 -43 28 -43 5 0 6 3 3 7 -4 3 -2 12 3 18 8 9 5
14 -9 18 -11 3 -22 3 -25 0z"/>
<path d="M3265 1682 c-6 -6 4 -22 15 -22 4 0 10 6 13 13 5 13 -17 20 -28 9z"/>
<path d="M3467 1627 c-3 -8 1 -14 8 -14 7 0 11 6 8 14 -3 7 -6 13 -8 13 -2 0
-5 -6 -8 -13z"/>
<path d="M5270 1490 c-9 -6 -10 -10 -3 -10 6 0 15 5 18 10 8 12 4 12 -15 0z"/>
<path d="M3144 1401 c4 -5 3 -11 -1 -14 -5 -2 -3 -3 3 -1 6 1 18 -3 25 -9 7
-7 5 -2 -5 11 -19 22 -32 30 -22 13z"/>
<path d="M3495 1249 c-4 -5 -4 -13 -1 -16 3 -4 6 0 6 8 0 11 2 11 10 -1 6 -9
10 -10 10 -3 0 17 -17 25 -25 12z"/>
<path d="M3540 1245 c-7 -9 -8 -15 -2 -15 5 0 12 7 16 15 3 8 4 15 2 15 -2 0
-9 -7 -16 -15z"/>
<path d="M3757 1243 c-4 -3 -7 -13 -7 -22 1 -13 3 -13 11 2 11 19 8 33 -4 20z"/>
<path d="M4477 1223 c-4 -3 -7 -11 -7 -17 0 -6 5 -5 12 2 6 6 9 14 7 17 -3 3
-9 2 -12 -2z"/>
<path d="M3973 1204 c-3 -8 -3 -18 1 -21 3 -4 6 0 6 9 0 8 7 15 15 15 17 0 20
-13 5 -20 -6 -3 -5 -4 2 -3 7 2 13 9 13 16 0 18 -35 22 -42 4z"/>
<path d="M4500 1211 c0 -6 4 -13 10 -16 6 -3 7 1 4 9 -7 18 -14 21 -14 7z"/>
<path d="M3650 1206 c0 -2 7 -7 16 -10 8 -3 12 -2 9 4 -6 10 -25 14 -25 6z"/>
<path d="M3706 1198 c3 -5 10 -6 15 -3 13 9 11 12 -6 12 -8 0 -12 -4 -9 -9z"/>
<path d="M3796 1202 c-2 -4 4 -8 14 -8 10 0 16 4 14 8 -3 4 -9 8 -14 8 -5 0
-11 -4 -14 -8z"/>
<path d="M4050 1199 c0 -4 7 -10 16 -13 8 -3 12 -11 8 -17 -4 -8 -3 -9 5 -5 8
6 9 12 2 20 -6 7 -9 15 -6 18 3 2 -2 5 -10 5 -8 0 -15 -4 -15 -8z"/>
<path d="M4546 1198 c3 -4 9 -8 15 -8 5 0 9 4 9 8 0 5 -7 9 -15 9 -8 0 -12 -4
-9 -9z"/>
</g>
</svg>
