<?xml version="1.0" encoding="utf-8"?>
<!-- Generator: Adobe Illustrator 13.0.0, SVG Export Plug-In . SVG Version: 6.00 Build 14948)  -->
<!DOCTYPE svg PUBLIC "-//W3C//DTD SVG 1.1//EN" "http://www.w3.org/Graphics/SVG/1.1/DTD/svg11.dtd">
<svg version="1.1"
	 id="svg3713" xmlns:dc="http://purl.org/dc/elements/1.1/" xmlns:cc="http://creativecommons.org/ns#" xmlns:rdf="http://www.w3.org/1999/02/22-rdf-syntax-ns#" xmlns:svg="http://www.w3.org/2000/svg" xmlns:sodipodi="http://sodipodi.sourceforge.net/DTD/sodipodi-0.dtd" xmlns:inkscape="http://www.inkscape.org/namespaces/inkscape" sodipodi:docname="sandpiper-logo-rev-white_notext.svg" inkscape:version="0.92.3 (2405546, 2018-03-11)"
	 xmlns="http://www.w3.org/2000/svg" xmlns:xlink="http://www.w3.org/1999/xlink" x="0px" y="0px" width="30px" height="30px"
	 viewBox="100.548 100.465 30 30" enable-background="new 100.548 100.465 30 30" xml:space="preserve">
<sodipodi:namedview  id="namedview3715" fit-margin-left="0" fit-margin-top="0" pagecolor="#ffffff" inkscape:cy="116.07476" guidetolerance="10" inkscape:cx="115.94613" gridtolerance="10" objecttolerance="10" inkscape:zoom="4.1485715" borderopacity="1" showgrid="false" bordercolor="#666666" fit-margin-bottom="0" fit-margin-right="0" inkscape:current-layer="g3721" inkscape:window-y="208" inkscape:window-x="208" inkscape:window-height="855" inkscape:window-width="1608" inkscape:pageshadow="2" inkscape:pageopacity="0" inkscape:window-maximized="0">
	</sodipodi:namedview>
<g id="g3721" transform="matrix(1.3333333,0,0,-1.3333333,-110.05386,797.85523)" inkscape:label="sandpiper-logo-rev-white_notext" inkscape:groupmode="layer">
	<g id="g3723">
		<g>
			<g id="g3725">
				<g id="g3731" transform="translate(169.2524,598.3906)">
					<path id="path3733" inkscape:connector-curvature="0" fill="#FFFFFF" d="M-0.093-75.348
						c-5.844-0.005-10.713-4.485-11.208-10.312c0.337,0.113,0.68,0.206,1.028,0.277c1.626,0.289,3.299,0.157,4.859-0.383
						c0.097-0.032,0.189-0.074,0.281-0.111c-0.264,0.898-0.327,1.843-0.184,2.768c0.556,2.283,2.856,3.682,5.137,3.125
						c0.032-0.008,0.064-0.016,0.096-0.025c1.187-0.363,2.147-1.24,2.614-2.39c0.242-0.636,0.398-1.302,0.461-1.979l6.196-1.421
						c0.461-0.111,0.319-0.761-0.111-0.794c-1.18-0.092-2.357-0.205-3.532-0.337c-0.825-0.092-1.65-0.194-2.462-0.35
						c-0.894-0.176-1.738-0.461-2.194-1.324c-0.36-0.678-0.461-1.679-0.687-2.464c-0.329-1.28-0.828-2.511-1.485-3.658
						c-0.575-0.999-1.349-1.868-2.273-2.556c5.897-1.941,12.25,1.271,14.189,7.172c1.939,5.902-1.27,12.259-7.167,14.199
						C2.318-75.533,1.116-75.342-0.093-75.348"/>
				</g>
				<g id="g3735" transform="translate(166.042,529.4775)">
					<path id="path3737" inkscape:connector-curvature="0" fill="#FFFFFF" d="M2.702-15.348c0.489-0.003,0.887,0.392,0.89,0.881
						s-0.392,0.888-0.881,0.89s-0.887-0.392-0.89-0.881v-0.004C1.822-14.95,2.215-15.346,2.702-15.348"/>
				</g>
			</g>
		</g>
	</g>
</g>
</svg>
