<?xml version="1.0" encoding="utf-8"?>
<!-- Generator: Adobe Illustrator 13.0.0, SVG Export Plug-In . SVG Version: 6.00 Build 14948)  -->
<!DOCTYPE svg PUBLIC "-//W3C//DTD SVG 1.1//EN" "http://www.w3.org/Graphics/SVG/1.1/DTD/svg11.dtd" [
	<!ENTITY ns_flows "http://ns.adobe.com/Flows/1.0/">
	<!ENTITY ns_extend "http://ns.adobe.com/Extensibility/1.0/">
	<!ENTITY ns_ai "http://ns.adobe.com/AdobeIllustrator/10.0/">
	<!ENTITY ns_graphs "http://ns.adobe.com/Graphs/1.0/">
]>
<svg version="1.1" id="Layer_2" xmlns:x="&ns_extend;" xmlns:i="&ns_ai;" xmlns:graph="&ns_graphs;"
	 xmlns="http://www.w3.org/2000/svg" xmlns:xlink="http://www.w3.org/1999/xlink" xmlns:a="http://ns.adobe.com/AdobeSVGViewerExtensions/3.0/"
	 x="0px" y="0px" width="192.5px" height="33.25px" viewBox="10 -4.25 192.5 33.25" enable-background="new 10 -4.25 192.5 33.25"
	 xml:space="preserve">
<g>
	<path d="M25.548,6.594c-0.828-1.584-2.52-2.952-4.571-2.952c-3.023,0-3.096,2.268-3.096,2.556c0,1.872,1.728,2.628,3.348,3.204
		l3.348,1.224c1.584,0.576,3.456,1.656,4.5,3.095c0.324,0.432,1.476,2.16,1.476,4.644c0,1.188,0,4.715-3.743,6.982
		c-1.548,0.936-3.744,1.332-5.076,1.332c-4.643,0-7.379-1.115-9.755-5.363l4.5-2.988c0.972,2.232,2.736,3.6,5.003,3.6
		c1.26,0,3.528-0.575,3.528-2.986c0-1.98-1.08-2.412-5.04-3.96c-3.996-1.548-7.451-3.312-7.451-8.531
		c0-4.355,3.168-7.487,8.603-7.487c3.888,0,6.623,1.583,8.783,4.751L25.548,6.594z"/>
	<path d="M45.888-0.497l7.631,26.421h-5.651l-1.332-5.256h-8.099l-1.368,5.256h-5.651l7.451-26.421H45.888z M42.468,4.219h-0.144
		l-2.879,11.95h5.939L42.468,4.219z"/>
	<path d="M56.113-0.497h5.543l6.803,12.347c0.288,0.54,0.647,1.26,0.9,1.8c0.108,0.216,0.468,1.188,0.576,1.368h0.18l-0.144-2.664
		c-0.108-1.8-0.108-2.016-0.108-3.023v-9.827h5.327v26.421h-4.751L63.42,13.109c-0.576-1.044-0.612-1.152-1.98-4.355h-0.18
		c0.036,0.756,0.18,4.104,0.18,4.788v12.382h-5.327V-0.497z"/>
	<path d="M79.765-0.497h6.407c6.443,0,8.711,1.224,10.223,3.42c1.152,1.691,1.584,3.527,1.584,9.467l-0.036,4.499
		c0,2.988-0.72,6.155-3.635,7.631c-1.908,0.973-3.528,1.152-5.651,1.332c-0.756,0.072-4.536,0.072-8.891,0.072V-0.497z
		 M85.668,21.209h1.656c2.34,0,4.715-0.433,4.715-5.508c0-0.9,0.072-2.34,0.072-3.24c0-3.167-0.072-5.363-0.972-6.659
		c-1.116-1.62-2.375-1.62-5.471-1.62V21.209z"/>
	<path fill="#5F61FF" d="M102.48-0.497h8.711c3.887,0,5.975,0.828,7.379,2.088c1.656,1.476,2.412,3.6,2.412,6.227
		c0,4.104-2.269,6.047-3.456,6.768c-1.907,1.152-3.995,1.26-6.048,1.332l-3.167,0.108v9.898h-5.832V-0.497z M108.312,11.598
		c2.771,0,3.815,0,4.499-0.288c0.469-0.18,2.124-0.972,2.124-3.671c0-2.556-0.972-3.096-1.764-3.419
		c-0.937-0.36-1.368-0.36-4.859-0.36V11.598z"/>
	<path fill="#5F61FF" d="M122.244,25.924v-2.34h3.096V1.807h-3.096v-2.304h12.059v2.304h-3.131v21.705h3.131v2.412H122.244z"/>
	<path fill="#5F61FF" d="M136.896-0.497h8.711c3.887,0,5.975,0.828,7.379,2.088c1.656,1.476,2.412,3.6,2.412,6.227
		c0,4.104-2.269,6.047-3.456,6.768c-1.907,1.152-3.995,1.26-6.048,1.332l-3.167,0.108v9.898h-5.831V-0.497z M142.728,11.598
		c2.771,0,3.815,0,4.499-0.288c0.469-0.18,2.124-0.972,2.124-3.671c0-2.556-0.972-3.096-1.764-3.419
		c-0.937-0.36-1.368-0.36-4.859-0.36V11.598z"/>
	<path fill="#5F61FF" d="M158.855-0.497h17.746v4.824h-11.986v5.615h8.242v4.823h-8.17v6.227h12.742v4.932h-18.574V-0.497z"/>
	<path fill="#5F61FF" d="M186.719,25.924h-5.723V-0.497h8.53c4.284,0,9.719,0.576,9.719,7.667c0,3.347-1.331,5.903-5.039,7.019
		l5.759,11.734h-6.299l-5.004-10.799h-1.943V25.924z M186.719,10.914c3.275,0,3.779,0,4.607-0.288
		c1.836-0.648,1.98-2.088,1.98-3.528c0-1.836-0.576-2.736-1.729-3.167c-0.9-0.324-1.619-0.324-4.859-0.324V10.914z"/>
</g>
</svg>
